<?xml version="1.0" encoding="UTF-8" standalone="no"?>
<svg
   xmlns:dc="http://purl.org/dc/elements/1.1/"
   xmlns:cc="http://creativecommons.org/ns#"
   xmlns:rdf="http://www.w3.org/1999/02/22-rdf-syntax-ns#"
   xmlns:svg="http://www.w3.org/2000/svg"
   xmlns="http://www.w3.org/2000/svg"
   xmlns:sodipodi="http://sodipodi.sourceforge.net/DTD/sodipodi-0.dtd"
   xmlns:inkscape="http://www.inkscape.org/namespaces/inkscape"
   viewBox="0.0 0.0 348.0 348.0"
   fill="none"
   id="svg2"
   version="1.1"
   inkscape:version="0.91 r13725"
   sodipodi:docname="Westeros.svg">
  <metadata
     id="metadata12">
    <rdf:RDF>
      <cc:Work
         rdf:about="">
        <dc:format>image/svg+xml</dc:format>
        <dc:type
           rdf:resource="http://purl.org/dc/dcmitype/StillImage" />
      </cc:Work>
    </rdf:RDF>
  </metadata>
  <defs
     id="defs10" />
  <sodipodi:namedview
     pagecolor="#ffffff"
     bordercolor="#666666"
     borderopacity="1"
     objecttolerance="10"
     gridtolerance="10"
     guidetolerance="10"
     inkscape:pageopacity="0"
     inkscape:pageshadow="2"
     inkscape:window-width="1440"
     inkscape:window-height="785"
     id="namedview8"
     showgrid="false"
     inkscape:zoom="0.95906437"
     inkscape:cx="127.23274"
     inkscape:cy="208.55147"
     inkscape:window-x="0"
     inkscape:window-y="1"
     inkscape:window-maximized="1"
     inkscape:current-layer="svg2" />
  <path
     d="M5.079 5.776h336.913v337.67H5.08z"
     stroke-width="2"
     stroke="#000"
     id="path4" />
  <path
     d="M282.734 40.554c0-8.376 6.966-15.165 15.56-15.165 4.126 0 8.084 1.597 11.001 4.441 2.918 2.844 4.558 6.702 4.558 10.724 0 8.376-6.966 15.165-15.56 15.165-8.593 0-15.559-6.79-15.559-15.165z"
     stroke-width="2"
     stroke="#000"
     id="path6" />
  <rect
     style="fill:none;fill-opacity:1;fill-rule:evenodd;stroke:#000000;stroke-width:1.84235764;stroke-linecap:butt;stroke-linejoin:miter;stroke-miterlimit:4;stroke-dasharray:none;stroke-opacity:1"
     id="rect4140"
     width="286.52545"
     height="41.56406"
     x="29.262705"
     y="151.00847" />
  <rect
     y="197.79797"
     x="29.262705"
     height="41.56406"
     width="286.52545"
     id="rect4154"
     style="fill:none;fill-opacity:1;fill-rule:evenodd;stroke:#000000;stroke-width:1.84235764;stroke-linecap:butt;stroke-linejoin:miter;stroke-miterlimit:4;stroke-dasharray:none;stroke-opacity:1" />
  <rect
     y="244.58727"
     x="29.262705"
     height="41.56406"
     width="286.52545"
     id="rect4160"
     style="fill:none;fill-opacity:1;fill-rule:evenodd;stroke:#000000;stroke-width:1.84235764;stroke-linecap:butt;stroke-linejoin:miter;stroke-miterlimit:4;stroke-dasharray:none;stroke-opacity:1" />
  <rect
     style="fill:none;fill-opacity:1;fill-rule:evenodd;stroke:#000000;stroke-width:1.84235764;stroke-linecap:butt;stroke-linejoin:miter;stroke-miterlimit:4;stroke-dasharray:none;stroke-opacity:1"
     id="rect4166"
     width="286.52545"
     height="41.56406"
     x="29.262705"
     y="291.37677" />
  <g
     style="font-style:normal;font-weight:normal;font-size:40px;line-height:125%;font-family:sans-serif;letter-spacing:0px;word-spacing:0px;fill:#000000;fill-opacity:1;stroke:none;stroke-width:1px;stroke-linecap:butt;stroke-linejoin:miter;stroke-opacity:1"
     id="text4176">
    <path
       d="m 125.58617,312.37845 -15.11719,5.37598 15.11719,5.34667 0,2.66602 -18.7793,-6.81152 0,-2.43164 18.7793,-6.81153 0,2.66602 z"
       style="font-style:normal;font-variant:normal;font-weight:normal;font-stretch:normal;font-size:30px;font-family:'Game of Thrones';-inkscape-font-specification:'Game of Thrones';text-align:center;text-anchor:middle"
       id="path4205" />
    <path
       d="m 129.54124,319.68802 q -0.70312,3.16406 -0.4541,5.30273 0.35157,0.542 1.14258,1.08399 1.56738,1.06933 3.69141,1.06933 3.32519,0 6.35742,-1.99218 3.79394,-2.50489 3.79394,-6.67969 0,-2.63672 -2.22656,-5.21485 -1.04004,-1.21582 -4.1748,-3.77929 -5.12696,-4.21875 -5.12696,-7.14844 0,-1.77246 1.24512,-2.75391 1.30371,-0.99609 3.76465,-0.99609 2.24121,0 3.60352,1.86035 1.06933,1.49414 1.06933,3.03223 l 0.92285,-5.18555 q -0.16113,-0.29297 -0.96679,-0.57129 -1.59668,-0.57129 -4.73145,-0.57129 -3.60351,0 -5.87402,1.99219 -2.09473,1.8457 -2.09473,4.45313 0,2.24121 1.65527,4.40918 1.09864,1.46484 4.11622,4.1455 3.09082,2.75391 4.2041,4.14551 1.72851,2.18262 1.72851,4.2041 0,2.05078 -2.15332,3.48633 -1.86035,1.24512 -3.7207,1.24512 -2.06543,0 -3.66211,-1.14258 -2.10938,-1.50879 -2.10938,-4.39453 z"
       style="font-style:normal;font-variant:normal;font-weight:normal;font-stretch:normal;font-size:30px;font-family:'Game of Thrones';-inkscape-font-specification:'Game of Thrones';text-align:center;text-anchor:middle"
       id="path4207" />
    <path
       d="m 160.25902,297.67142 1.12793,-0.52735 -1.12793,5.47852 q -0.0586,-0.82031 -0.4834,-1.62598 -0.83496,-1.64062 -2.65137,-1.64062 l -5.69824,0 0,11.2207 6.26953,0 q 1.81641,-0.0439 2.98828,-0.99609 l -0.73242,5.87402 q -0.0293,-0.80566 -0.51269,-1.59668 -0.9668,-1.58203 -3.22266,-1.58203 l -4.79004,0 0,11.13281 q 0.4834,0.62988 1.37695,1.25977 1.80176,1.25976 3.88184,1.25976 2.09473,0 3.91113,-1.97754 0.90821,-0.99609 1.3916,-1.97753 l -0.60058,5.17089 -15.9961,0 q 0.62989,-0.21972 1.27442,-0.68847 1.28906,-0.9668 1.28906,-2.27051 0,-2.08008 -0.0439,-24.47754 -0.65918,-1.34766 -3.04688,-2.03613 l 15.39551,0 z"
       style="font-style:normal;font-variant:normal;font-weight:normal;font-stretch:normal;font-size:30px;font-family:'Game of Thrones';-inkscape-font-specification:'Game of Thrones';text-align:center;text-anchor:middle"
       id="path4209" />
    <path
       d="m 173.76488,313.93118 3.73535,-10.10742 3.61816,10.13672 -7.35351,-0.0293 z m 18.83789,13.21289 q -0.58594,-0.13183 -1.30371,-0.51269 -1.43555,-0.76172 -2.08008,-2.02149 -1.04004,-2.00683 -11.49902,-27.46582 l -10.28321,27.2461 q -0.19043,0.58593 -0.76172,1.23047 -1.12793,1.27441 -3.03222,1.52343 l 8.78906,0 q -0.57129,-0.13183 -1.14258,-0.4248 -1.15723,-0.61524 -1.15723,-1.47949 l 3.16407,-9.47754 8.27636,0 3.85254,9.94629 q -1.61132,0.4541 -2.2998,1.43554 l 9.47754,0 z"
       style="font-style:normal;font-variant:normal;font-weight:normal;font-stretch:normal;font-size:30px;font-family:'Game of Thrones';-inkscape-font-specification:'Game of Thrones';text-align:center;text-anchor:middle"
       id="path4211" />
    <path
       d="m 209.85863,297.67142 -21.15235,0 -1.12793,-0.52735 1.12793,5.47852 q 0.0586,-0.82031 0.46875,-1.62598 0.84961,-1.64062 2.66602,-1.64062 l 5.6543,0 0.0146,0.35156 q 0.0147,8.51074 0.0293,15.52734 l 0,9.14063 q -0.10254,1.21582 -1.33301,2.10937 -0.62988,0.45411 -1.23047,0.65918 l 8.59864,0 q -0.60059,-0.20507 -1.21582,-0.65918 -1.24512,-0.89355 -1.33301,-2.10937 l 0,-9.14063 q 0.0146,-7.0166 0.0293,-15.52734 l 0,-0.35156 5.66894,0 q 1.81641,0 2.65137,1.64062 0.4248,0.80567 0.4834,1.62598 l 1.12793,-5.47852 -1.12793,0.52735 z"
       style="font-style:normal;font-variant:normal;font-weight:normal;font-stretch:normal;font-size:30px;font-family:'Game of Thrones';-inkscape-font-specification:'Game of Thrones';text-align:center;text-anchor:middle"
       id="path4213" />
    <path
       d="m 214.26781,312.37845 0,-2.66602 18.77929,6.81153 0,2.43164 -18.77929,6.81152 0,-2.66602 15.08789,-5.34667 -15.08789,-5.37598 z"
       style="font-style:normal;font-variant:normal;font-weight:normal;font-stretch:normal;font-size:30px;font-family:'Game of Thrones';-inkscape-font-specification:'Game of Thrones';text-align:center;text-anchor:middle"
       id="path4215" />
  </g>
  <g
     style="font-style:normal;font-weight:normal;font-size:40px;line-height:125%;font-family:sans-serif;letter-spacing:0px;word-spacing:0px;fill:#000000;fill-opacity:1;stroke:none;stroke-width:1px;stroke-linecap:butt;stroke-linejoin:miter;stroke-opacity:1"
     id="text4180">
    <path
       d="m 94.765854,266.37845 -15.117188,5.37598 15.117188,5.34667 0,2.66602 -18.779297,-6.81152 0,-2.43164 18.779297,-6.81153 0,2.66602 z"
       style="font-style:normal;font-variant:normal;font-weight:normal;font-stretch:normal;font-size:30px;font-family:'Game of Thrones';-inkscape-font-specification:'Game of Thrones';text-align:center;text-anchor:middle"
       id="path4218" />
    <path
       d="m 127.78343,274.17142 8.78906,-20.25879 q -0.10253,-1.21582 -1.34765,-2.10938 -0.62988,-0.4541 -1.23047,-0.65918 l 8.67187,0 q -0.48339,0.11719 -1.01074,0.49805 -1.06933,0.76172 -1.28906,2.10938 l -12.46582,27.39257 0,-0.26367 -0.11719,0.26367 -7.4414,-16.06933 -7.44141,16.06933 -0.11719,-0.26367 0,0.26367 -12.46582,-27.39257 q -0.21972,-1.34766 -1.289061,-2.10938 -0.527344,-0.38086 -1.010742,-0.49805 l 8.686523,0 q -0.61523,0.20508 -1.23047,0.65918 -1.25976,0.89356 -1.34765,2.10938 l 8.77441,20.25879 5.63965,-12.99317 1.80176,-4.52636 1.8164,4.52636 5.625,12.99317 z"
       style="font-style:normal;font-variant:normal;font-weight:normal;font-stretch:normal;font-size:30px;font-family:'Game of Thrones';-inkscape-font-specification:'Game of Thrones';text-align:center;text-anchor:middle"
       id="path4220" />
    <path
       d="m 156.72874,253.2388 q 3.38379,1.04004 5.53711,3.61816 3.04688,3.64747 3.04688,9.8877 0,6.22559 -3.04688,9.58008 -2.15332,2.37304 -5.53711,3.09082 l 0,-26.17676 z m -13.91601,12.90527 q 0,-6.0498 2.98828,-9.53613 2.12402,-2.46094 5.49316,-3.42773 l 0,26.00097 q -3.36914,-0.98144 -5.49316,-3.47168 -2.98828,-3.51562 -2.98828,-9.56543 z m 11.83594,-13.35937 q 0.58593,0.0732 1.18652,0.20508 l 0,26.58691 q -0.62988,0.0732 -1.18652,0.0879 l 0,-26.87988 z m -1.4795,26.80664 q -0.46875,-0.0732 -0.98144,-0.17578 l 0,-26.45508 q 0.4834,-0.10254 0.98144,-0.16113 l 0,26.79199 z m 1.37696,-28.43262 q -3.86719,-0.23437 -7.73438,1.59668 -7.74902,3.64746 -7.74902,13.88672 0,7.32422 5.52246,11.32324 4.39453,3.17871 9.96094,3.17871 5.12695,0 9.47754,-3.64746 5.02441,-4.21875 5.02441,-10.75195 0,-6.67969 -4.87793,-11.35254 -4.43848,-4.2334 -9.62402,-4.2334 z"
       style="font-style:normal;font-variant:normal;font-weight:normal;font-stretch:normal;font-size:30px;font-family:'Game of Thrones';-inkscape-font-specification:'Game of Thrones';text-align:center;text-anchor:middle"
       id="path4222" />
    <path
       d="m 174.57054,266.24661 q 0.11719,-9.41894 0.11719,-11.74804 0,-1.59668 0.65918,-1.875 0.26367,-0.11719 2.38769,-0.11719 2.12403,0 3.83789,1.80176 2.09473,2.21191 2.09473,6.09375 0,3.55957 -2.03613,5.05371 -1.02539,0.74707 -2.05078,0.79101 l -5.00977,0 z m 11.51367,5.25879 q -1.94824,-2.87109 -3.45703,-4.26269 3.10547,-2.76856 4.13086,-6.00586 0.52735,-1.62598 0.42481,-2.68067 0,-5.80078 -6.31348,-7.08984 -3.14941,-0.64453 -6.29883,-0.13184 l -6.00586,0 q 0.60059,0.20508 1.21582,0.65918 1.23047,0.89356 1.31836,2.09473 l 0,24.30176 q -0.0879,1.21582 -1.31836,2.10937 -0.61523,0.43946 -1.21582,0.64453 l 8.54004,0 q -0.60058,-0.20507 -1.21582,-0.64453 -1.23047,-0.89355 -1.31836,-2.10937 l 0,-10.04883 q 3.85254,0 6.54785,2.08008 1.34766,1.02539 1.91895,2.06543 1.28906,2.16797 3.09082,4.33593 3.60351,4.32129 6.12305,4.32129 2.51953,0 3.77929,-0.64453 0.64453,-0.32226 0.77637,-0.62988 -2.8418,0.58594 -6.26953,-2.75391 -1.91895,-1.875 -4.45313,-5.61035 z"
       style="font-style:normal;font-variant:normal;font-weight:normal;font-stretch:normal;font-size:30px;font-family:'Game of Thrones';-inkscape-font-specification:'Game of Thrones';text-align:center;text-anchor:middle"
       id="path4224" />
    <path
       d="m 208.49632,279.41556 q -2.90039,0.11719 -4.51172,-1.36231 l 0,-23.4375 q 2.40235,-1.96289 6.12305,-1.96289 5.83008,0 9.18457,3.39844 3.41309,3.42773 3.41309,9.44824 0,5.78614 -4.67285,9.99024 -4.35059,3.92578 -9.53614,3.92578 z m -10.92773,-28.27149 q 2.12402,0.542 2.7539,1.40625 0.32227,0.42481 0.20508,0.76172 l 0,25.97168 q -0.14648,0.76172 -1.46484,1.36231 l -1.49414,0.49804 11.92383,0 q 7.14843,0 11.52832,-3.70605 4.89257,-4.16016 4.89257,-11.99707 0.17579,-3.57422 -1.66992,-7.14844 -3.70605,-7.14844 -13.81347,-7.14844 l -12.86133,0 z"
       style="font-style:normal;font-variant:normal;font-weight:normal;font-stretch:normal;font-size:30px;font-family:'Game of Thrones';-inkscape-font-specification:'Game of Thrones';text-align:center;text-anchor:middle"
       id="path4226" />
    <path
       d="m 227.30492,273.68802 q -0.70313,3.16406 -0.45411,5.30273 0.35157,0.542 1.14258,1.08399 1.56739,1.06933 3.69141,1.06933 3.32519,0 6.35742,-1.99218 3.79395,-2.50489 3.79395,-6.67969 0,-2.63672 -2.22657,-5.21485 -1.04004,-1.21582 -4.1748,-3.77929 -5.12695,-4.21875 -5.12695,-7.14844 0,-1.77246 1.24511,-2.75391 1.30371,-0.99609 3.76465,-0.99609 2.24121,0 3.60352,1.86035 1.06933,1.49414 1.06933,3.03223 l 0.92285,-5.18555 q -0.16113,-0.29297 -0.96679,-0.57129 -1.59668,-0.57129 -4.73145,-0.57129 -3.60351,0 -5.87402,1.99219 -2.09473,1.8457 -2.09473,4.45313 0,2.24121 1.65528,4.40918 1.09863,1.46484 4.11621,4.1455 3.09082,2.75391 4.2041,4.14551 1.72851,2.18262 1.72851,4.2041 0,2.05078 -2.15332,3.48633 -1.86035,1.24512 -3.7207,1.24512 -2.06543,0 -3.66211,-1.14258 -2.10937,-1.50879 -2.10937,-4.39453 z"
       style="font-style:normal;font-variant:normal;font-weight:normal;font-stretch:normal;font-size:30px;font-family:'Game of Thrones';-inkscape-font-specification:'Game of Thrones';text-align:center;text-anchor:middle"
       id="path4228" />
    <path
       d="m 245.08812,266.37845 0,-2.66602 18.7793,6.81153 0,2.43164 -18.7793,6.81152 0,-2.66602 15.08789,-5.34667 -15.08789,-5.37598 z"
       style="font-style:normal;font-variant:normal;font-weight:normal;font-stretch:normal;font-size:30px;font-family:'Game of Thrones';-inkscape-font-specification:'Game of Thrones';text-align:center;text-anchor:middle"
       id="path4230" />
  </g>
  <g
     style="font-style:normal;font-weight:normal;font-size:40px;line-height:125%;font-family:sans-serif;letter-spacing:0px;word-spacing:0px;fill:#000000;fill-opacity:1;stroke:none;stroke-width:1px;stroke-linecap:butt;stroke-linejoin:miter;stroke-opacity:1"
     id="text4184">
    <path
       d="m 106.60179,218.37845 -15.117186,5.37598 15.117186,5.34667 0,2.66602 -18.779295,-6.81152 0,-2.43164 18.779295,-6.81153 0,2.66602 z"
       style="font-style:normal;font-variant:normal;font-weight:normal;font-stretch:normal;font-size:30px;font-family:'Game of Thrones';-inkscape-font-specification:'Game of Thrones';text-align:center;text-anchor:middle"
       id="path4233" />
    <path
       d="m 135.89867,205.91263 q 0.0879,-1.21582 1.333,-2.10938 0.61524,-0.4541 1.21582,-0.65918 l -8.59863,0 q 0.60059,0.20508 1.23047,0.65918 1.23047,0.89356 1.31836,2.10938 l 0,9.74121 -16.49414,0 0,-9.74121 q 0.0879,-1.21582 1.31836,-2.10938 0.62988,-0.4541 1.23047,-0.65918 l -8.59864,0 q 0.60059,0.20508 1.21582,0.65918 1.24512,0.89356 1.33301,2.10938 l 0,24.46289 q -0.0879,1.21582 -1.33301,2.10937 -0.61523,0.45411 -1.21582,0.65918 l 8.59864,0 q -0.60059,-0.20507 -1.23047,-0.65918 -1.23047,-0.89355 -1.31836,-2.10937 l 0,-12.6416 16.49414,0 0,12.6416 q -0.0879,1.21582 -1.31836,2.10937 -0.62988,0.45411 -1.23047,0.65918 l 8.59863,0 q -0.60058,-0.20507 -1.21582,-0.65918 -1.24511,-0.89355 -1.333,-2.10937 l 0,-24.46289 z"
       style="font-style:normal;font-variant:normal;font-weight:normal;font-stretch:normal;font-size:30px;font-family:'Game of Thrones';-inkscape-font-specification:'Game of Thrones';text-align:center;text-anchor:middle"
       id="path4235" />
    <path
       d="m 156.05492,205.2388 q 3.38379,1.04004 5.53711,3.61816 3.04687,3.64747 3.04687,9.8877 0,6.22559 -3.04687,9.58008 -2.15332,2.37304 -5.53711,3.09082 l 0,-26.17676 z m -13.91602,12.90527 q 0,-6.0498 2.98828,-9.53613 2.12403,-2.46094 5.49317,-3.42773 l 0,26.00097 q -3.36914,-0.98144 -5.49317,-3.47168 -2.98828,-3.51562 -2.98828,-9.56543 z m 11.83594,-13.35937 q 0.58594,0.0732 1.18652,0.20508 l 0,26.58691 q -0.62988,0.0732 -1.18652,0.0879 l 0,-26.87988 z m -1.47949,26.80664 q -0.46875,-0.0732 -0.98145,-0.17578 l 0,-26.45508 q 0.4834,-0.10254 0.98145,-0.16113 l 0,26.79199 z m 1.37695,-28.43262 q -3.86719,-0.23437 -7.73438,1.59668 -7.74902,3.64746 -7.74902,13.88672 0,7.32422 5.52246,11.32324 4.39453,3.17871 9.96094,3.17871 5.12695,0 9.47754,-3.64746 5.02441,-4.21875 5.02441,-10.75195 0,-6.67969 -4.87793,-11.35254 -4.43847,-4.2334 -9.62402,-4.2334 z"
       style="font-style:normal;font-variant:normal;font-weight:normal;font-stretch:normal;font-size:30px;font-family:'Game of Thrones';-inkscape-font-specification:'Game of Thrones';text-align:center;text-anchor:middle"
       id="path4237" />
    <path
       d="m 189.68773,203.14407 q 0.58594,0.13184 1.17187,0.60059 1.15723,0.9668 1.15723,2.68066 l 0,12.7002 q 0,6.25488 -1.91894,9.33105 -1.50879,2.40235 -4.36524,3.00293 l -0.86426,0.14649 q -0.46875,0.0732 -1.15722,0.10254 l -1.43555,-0.0879 q -0.46875,-0.0586 -0.9668,-0.16114 l -0.84961,-0.21972 q -6.19629,-1.81641 -6.19629,-12.7002 l 0.0146,-3.61816 0.0293,-9.03809 q 0.10254,-1.20117 1.31836,-2.09473 0.61523,-0.43945 1.21582,-0.64453 l -8.51074,0 q 0.4834,0.10254 1.01074,0.4834 1.04004,0.76172 1.25976,2.09473 l 0,13.30078 q 0,7.23633 4.35059,11.03027 3.55957,3.09082 8.67188,3.09082 4.71679,0 8.18847,-3.55957 3.86719,-3.95507 3.86719,-10.45898 l 0,-13.28613 q 0.10254,-1.18653 1.31836,-2.06543 0.61523,-0.42481 1.18652,-0.62989 l -8.49609,0 z"
       style="font-style:normal;font-variant:normal;font-weight:normal;font-stretch:normal;font-size:30px;font-family:'Game of Thrones';-inkscape-font-specification:'Game of Thrones';text-align:center;text-anchor:middle"
       id="path4239" />
    <path
       d="m 197.59789,225.68802 q -0.70313,3.16406 -0.45411,5.30273 0.35157,0.542 1.14258,1.08399 1.56738,1.06933 3.69141,1.06933 3.32519,0 6.35742,-1.99218 3.79395,-2.50489 3.79395,-6.67969 0,-2.63672 -2.22657,-5.21485 -1.04004,-1.21582 -4.1748,-3.77929 -5.12696,-4.21875 -5.12696,-7.14844 0,-1.77246 1.24512,-2.75391 1.30371,-0.99609 3.76465,-0.99609 2.24121,0 3.60352,1.86035 1.06933,1.49414 1.06933,3.03223 l 0.92285,-5.18555 q -0.16113,-0.29297 -0.96679,-0.57129 -1.59668,-0.57129 -4.73145,-0.57129 -3.60351,0 -5.87402,1.99219 -2.09473,1.8457 -2.09473,4.45313 0,2.24121 1.65527,4.40918 1.09864,1.46484 4.11622,4.1455 3.09082,2.75391 4.2041,4.14551 1.72851,2.18262 1.72851,4.2041 0,2.05078 -2.15332,3.48633 -1.86035,1.24512 -3.7207,1.24512 -2.06543,0 -3.66211,-1.14258 -2.10937,-1.50879 -2.10937,-4.39453 z"
       style="font-style:normal;font-variant:normal;font-weight:normal;font-stretch:normal;font-size:30px;font-family:'Game of Thrones';-inkscape-font-specification:'Game of Thrones';text-align:center;text-anchor:middle"
       id="path4241" />
    <path
       d="m 228.28636,203.67142 1.12793,-0.52735 -1.12793,5.47852 q -0.0586,-0.82031 -0.4834,-1.62598 -0.83496,-1.64062 -2.65136,-1.64062 l -5.69825,0 0,11.2207 6.26954,0 q 1.8164,-0.0439 2.98828,-0.99609 l -0.73243,5.87402 q -0.0293,-0.80566 -0.51269,-1.59668 -0.9668,-1.58203 -3.22266,-1.58203 l -4.79004,0 0,11.13281 q 0.4834,0.62988 1.37696,1.25977 1.80175,1.25976 3.88183,1.25976 2.09473,0 3.91114,-1.97754 0.9082,-0.99609 1.3916,-1.97753 l -0.60059,5.17089 -15.99609,0 q 0.62988,-0.21972 1.27441,-0.68847 1.28906,-0.9668 1.28906,-2.27051 0,-2.08008 -0.0439,-24.47754 -0.65918,-1.34766 -3.04688,-2.03613 l 15.39551,0 z"
       style="font-style:normal;font-variant:normal;font-weight:normal;font-stretch:normal;font-size:30px;font-family:'Game of Thrones';-inkscape-font-specification:'Game of Thrones';text-align:center;text-anchor:middle"
       id="path4243" />
    <path
       d="m 233.25218,218.37845 0,-2.66602 18.7793,6.81153 0,2.43164 -18.7793,6.81152 0,-2.66602 15.08789,-5.34667 -15.08789,-5.37598 z"
       style="font-style:normal;font-variant:normal;font-weight:normal;font-stretch:normal;font-size:30px;font-family:'Game of Thrones';-inkscape-font-specification:'Game of Thrones';text-align:center;text-anchor:middle"
       id="path4245" />
  </g>
  <g
     style="font-style:normal;font-weight:normal;font-size:40px;line-height:125%;font-family:sans-serif;letter-spacing:0px;word-spacing:0px;fill:#000000;fill-opacity:1;stroke:none;stroke-width:1px;stroke-linecap:butt;stroke-linejoin:miter;stroke-opacity:1"
     id="text4188">
    <path
       d="m 60.898666,172.37845 -15.117187,5.37598 15.117187,5.34667 0,2.66602 -18.779296,-6.81152 0,-2.43164 18.779296,-6.81153 0,2.66602 z"
       style="font-style:normal;font-variant:normal;font-weight:normal;font-stretch:normal;font-size:30px;font-family:'Game of Thrones';-inkscape-font-specification:'Game of Thrones';text-align:center;text-anchor:middle"
       id="path4248" />
    <path
       d="m 70.71312,170.57669 0,-11.2207 5.698242,0 q 1.816406,0 2.651367,1.64062 0.424805,0.80567 0.483398,1.62598 l 1.12793,-5.47852 -1.12793,0.52735 -15.395507,0 q 2.387695,0.68847 3.046875,2.03613 0.01465,8.51074 0.0293,15.52734 l -0.01465,0 0,9.14063 q -0.102539,1.21582 -1.333008,2.10937 -0.615234,0.45411 -1.21582,0.65918 l 8.583984,0 q -0.600586,-0.20507 -1.21582,-0.65918 -1.245117,-0.89355 -1.333008,-2.10937 l 0,-0.4834 0.01465,-0.4834 0,-11.13281 4.790039,0 q 2.255859,0 3.222656,1.58203 0.483398,0.79102 0.512695,1.59668 l 0.732422,-5.87402 q -1.171875,0.95215 -2.988281,0.99609 l -6.269531,0 z"
       style="font-style:normal;font-variant:normal;font-weight:normal;font-stretch:normal;font-size:30px;font-family:'Game of Thrones';-inkscape-font-specification:'Game of Thrones';text-align:center;text-anchor:middle"
       id="path4250" />
    <path
       d="m 99.717026,159.2388 q 3.383784,1.04004 5.537114,3.61816 3.04687,3.64747 3.04687,9.8877 0,6.22559 -3.04687,9.58008 -2.15333,2.37304 -5.537114,3.09082 l 0,-26.17676 z M 85.80101,172.14407 q 0,-6.0498 2.988281,-9.53613 2.124024,-2.46094 5.493164,-3.42773 l 0,26.00097 q -3.36914,-0.98144 -5.493164,-3.47168 -2.988281,-3.51562 -2.988281,-9.56543 z M 97.636948,158.7847 q 0.585937,0.0732 1.186523,0.20508 l 0,26.58691 q -0.629883,0.0732 -1.186523,0.0879 l 0,-26.87988 z m -1.479493,26.80664 q -0.46875,-0.0732 -0.981445,-0.17578 l 0,-26.45508 q 0.483399,-0.10254 0.981445,-0.16113 l 0,26.79199 z m 1.376954,-28.43262 q -3.867188,-0.23437 -7.734375,1.59668 -7.749024,3.64746 -7.749024,13.88672 0,7.32422 5.522461,11.32324 4.394531,3.17871 9.960938,3.17871 5.126951,0 9.477541,-3.64746 5.02441,-4.21875 5.02441,-10.75195 0,-6.67969 -4.87793,-11.35254 -4.43847,-4.2334 -9.624021,-4.2334 z"
       style="font-style:normal;font-variant:normal;font-weight:normal;font-stretch:normal;font-size:30px;font-family:'Game of Thrones';-inkscape-font-specification:'Game of Thrones';text-align:center;text-anchor:middle"
       id="path4252" />
    <path
       d="m 117.55882,172.24661 q 0.11719,-9.41894 0.11719,-11.74804 0,-1.59668 0.65918,-1.875 0.26367,-0.11719 2.3877,-0.11719 2.12402,0 3.83789,1.80176 2.09472,2.21191 2.09472,6.09375 0,3.55957 -2.03613,5.05371 -1.02539,0.74707 -2.05078,0.79101 l -5.00977,0 z m 11.51367,5.25879 q -1.94824,-2.87109 -3.45703,-4.26269 3.10547,-2.76856 4.13086,-6.00586 0.52735,-1.62598 0.42481,-2.68067 0,-5.80078 -6.31348,-7.08984 -3.14941,-0.64453 -6.29883,-0.13184 l -6.00586,0 q 0.60059,0.20508 1.21582,0.65918 1.23047,0.89356 1.31836,2.09473 l 0,24.30176 q -0.0879,1.21582 -1.31836,2.10937 -0.61523,0.43946 -1.21582,0.64453 l 8.54004,0 q -0.60058,-0.20507 -1.21582,-0.64453 -1.23047,-0.89355 -1.31836,-2.10937 l 0,-10.04883 q 3.85254,0 6.54785,2.08008 1.34766,1.02539 1.91895,2.06543 1.28906,2.16797 3.09082,4.33593 3.60352,4.32129 6.12305,4.32129 2.51953,0 3.77929,-0.64453 0.64453,-0.32226 0.77637,-0.62988 -2.8418,0.58594 -6.26953,-2.75391 -1.91895,-1.875 -4.45313,-5.61035 z"
       style="font-style:normal;font-variant:normal;font-weight:normal;font-stretch:normal;font-size:30px;font-family:'Game of Thrones';-inkscape-font-specification:'Game of Thrones';text-align:center;text-anchor:middle"
       id="path4254" />
    <path
       d="m 155.36644,157.67142 1.12793,-0.52735 -1.12793,5.47852 q -0.0586,-0.82031 -0.4834,-1.62598 -0.83496,-1.64062 -2.65137,-1.64062 l -5.69824,0 0,11.2207 6.26953,0 q 1.81641,-0.0439 2.98828,-0.99609 l -0.73242,5.87402 q -0.0293,-0.80566 -0.51269,-1.59668 -0.9668,-1.58203 -3.22266,-1.58203 l -4.79004,0 0,11.13281 q 0.4834,0.62988 1.37696,1.25977 1.80175,1.25976 3.88183,1.25976 2.09473,0 3.91113,-1.97754 0.90821,-0.99609 1.39161,-1.97753 l -0.60059,5.17089 -15.99609,0 q 0.62988,-0.21972 1.27441,-0.68847 1.28906,-0.9668 1.28906,-2.27051 0,-2.08008 -0.0439,-24.47754 -0.65918,-1.34766 -3.04688,-2.03613 l 15.39551,0 z"
       style="font-style:normal;font-variant:normal;font-weight:normal;font-stretch:normal;font-size:30px;font-family:'Game of Thrones';-inkscape-font-specification:'Game of Thrones';text-align:center;text-anchor:middle"
       id="path4256" />
    <path
       d="m 180.5471,157.14407 q 0.60059,0.20508 1.21582,0.65918 1.24512,0.89356 1.33301,2.10938 l 0,20.1416 -21.82617,-22.91016 0,27.23145 q -0.0879,1.21582 -1.33301,2.10937 -0.61523,0.45411 -1.21582,0.65918 l 8.59863,0 q -0.60058,-0.20507 -1.21582,-0.65918 -1.24511,-0.89355 -1.333,-2.10937 l 0,-19.86328 21.81152,22.63183 0,-0.0293 0.0147,0.0293 0,-27.23144 q 0.0879,-1.21582 1.33301,-2.10938 0.61523,-0.4541 1.21582,-0.65918 l -8.59864,0 z"
       style="font-style:normal;font-variant:normal;font-weight:normal;font-stretch:normal;font-size:30px;font-family:'Game of Thrones';-inkscape-font-specification:'Game of Thrones';text-align:center;text-anchor:middle"
       id="path4258" />
    <path
       d="m 199.19456,173.93118 3.73536,-10.10742 3.61816,10.13672 -7.35352,-0.0293 z m 18.8379,13.21289 q -0.58594,-0.13183 -1.30372,-0.51269 -1.43554,-0.76172 -2.08007,-2.02149 -1.04004,-2.00683 -11.49903,-27.46582 l -10.2832,27.2461 q -0.19043,0.58593 -0.76172,1.23047 -1.12793,1.27441 -3.03223,1.52343 l 8.78907,0 q -0.57129,-0.13183 -1.14258,-0.4248 -1.15723,-0.61524 -1.15723,-1.47949 l 3.16406,-9.47754 8.27637,0 3.85254,9.94629 q -1.61133,0.4541 -2.2998,1.43554 l 9.47754,0 z"
       style="font-style:normal;font-variant:normal;font-weight:normal;font-stretch:normal;font-size:30px;font-family:'Game of Thrones';-inkscape-font-specification:'Game of Thrones';text-align:center;text-anchor:middle"
       id="path4260" />
    <path
       d="m 237.52953,186.54349 9.96093,-17.98828 3.44239,14.88281 0,0.9668 q -0.0879,1.20117 -1.31836,2.09472 -0.61524,0.43946 -1.20118,0.64453 l 8.4961,0 q -0.58594,-0.20507 -1.20117,-0.64453 -1.23047,-0.89355 -1.31836,-2.09472 l -4.46778,-26.90918 -12.43652,24.03808 -12.07031,-24.38965 -3.44238,26.90918 q -0.0879,1.21582 -1.31836,2.09473 -0.60059,0.4541 -1.20118,0.65918 l 8.51075,0 q -0.60059,-0.20508 -1.21582,-0.65918 -1.21582,-0.87891 -1.31836,-2.09473 l 0,-0.95215 2.06543,-15.23437 9.88769,18.58887 0.10254,0.10254 0.0146,0 0,0.0146 0.0293,-0.0293 z"
       style="font-style:normal;font-variant:normal;font-weight:normal;font-stretch:normal;font-size:30px;font-family:'Game of Thrones';-inkscape-font-specification:'Game of Thrones';text-align:center;text-anchor:middle"
       id="path4262" />
    <path
       d="m 274.01878,157.67142 1.12793,-0.52735 -1.12793,5.47852 q -0.0586,-0.82031 -0.48339,-1.62598 -0.83497,-1.64062 -2.65137,-1.64062 l -5.69824,0 0,11.2207 6.26953,0 q 1.8164,-0.0439 2.98828,-0.99609 l -0.73242,5.87402 q -0.0293,-0.80566 -0.5127,-1.59668 -0.9668,-1.58203 -3.22266,-1.58203 l -4.79003,0 0,11.13281 q 0.48339,0.62988 1.37695,1.25977 1.80176,1.25976 3.88183,1.25976 2.09473,0 3.91114,-1.97754 0.9082,-0.99609 1.3916,-1.97753 l -0.60059,5.17089 -15.99609,0 q 0.62988,-0.21972 1.27441,-0.68847 1.28907,-0.9668 1.28907,-2.27051 0,-2.08008 -0.0439,-24.47754 -0.65918,-1.34766 -3.04687,-2.03613 l 15.3955,0 z"
       style="font-style:normal;font-variant:normal;font-weight:normal;font-stretch:normal;font-size:30px;font-family:'Game of Thrones';-inkscape-font-specification:'Game of Thrones';text-align:center;text-anchor:middle"
       id="path4264" />
    <path
       d="m 278.95531,172.37845 0,-2.66602 18.77929,6.81153 0,2.43164 -18.77929,6.81152 0,-2.66602 15.08789,-5.34667 -15.08789,-5.37598 z"
       style="font-style:normal;font-variant:normal;font-weight:normal;font-stretch:normal;font-size:30px;font-family:'Game of Thrones';-inkscape-font-specification:'Game of Thrones';text-align:center;text-anchor:middle"
       id="path4266" />
  </g>
  <rect
     style="fill:none;fill-rule:evenodd;stroke:#000000;stroke-width:3;stroke-linecap:butt;stroke-linejoin:miter;stroke-miterlimit:4;stroke-dasharray:none;stroke-opacity:1"
     id="rect4192"
     width="151.88136"
     height="128.28813"
     x="30.016949"
     y="14.745763" />
  <g
     style="font-style:normal;font-weight:normal;font-size:40px;line-height:125%;font-family:sans-serif;letter-spacing:0px;word-spacing:0px;fill:#000000;fill-opacity:1;stroke:none;stroke-width:1px;stroke-linecap:butt;stroke-linejoin:miter;stroke-opacity:1"
     id="text4194">
    <path
       d="m 69.908508,80.59362 -12.597656,4.479981 12.597656,4.455566 0,2.22168 -15.649414,-5.67627 0,-2.026367 15.649414,-5.676269 0,2.221679 z"
       style="font-style:normal;font-variant:normal;font-weight:normal;font-stretch:normal;font-size:25px;font-family:'Game of Thrones';-inkscape-font-specification:'Game of Thrones'"
       id="path4288" />
    <path
       d="m 73.204407,86.684929 q -0.585938,2.636719 -0.378418,4.418945 0.292969,0.45166 0.952148,0.903321 1.306153,0.891113 3.076172,0.891113 2.770996,0 5.297852,-1.660156 3.161621,-2.087403 3.161621,-5.566407 0,-2.197265 -1.855469,-4.345703 -0.866699,-1.013183 -3.479004,-3.149414 -4.272461,-3.515625 -4.272461,-5.957031 0,-1.477051 1.037598,-2.294922 1.086426,-0.830078 3.137207,-0.830078 1.867676,0 3.00293,1.550293 0.891113,1.245117 0.891113,2.526855 l 0.769043,-4.321289 q -0.134278,-0.24414 -0.805664,-0.476074 -1.330567,-0.476074 -3.942871,-0.476074 -3.00293,0 -4.89502,1.660156 -1.745605,1.538086 -1.745605,3.710938 0,1.867675 1.379394,3.674316 0.915527,1.220703 3.430176,3.45459 2.575684,2.294922 3.503418,3.45459 1.44043,1.818847 1.44043,3.503418 0,1.708984 -1.794434,2.905273 -1.550293,1.037598 -3.100586,1.037598 -1.721191,0 -3.051758,-0.952149 -1.757812,-1.257324 -1.757812,-3.662109 z"
       style="font-style:normal;font-variant:normal;font-weight:normal;font-stretch:normal;font-size:25px;font-family:'Game of Thrones';-inkscape-font-specification:'Game of Thrones'"
       id="path4290" />
    <path
       d="m 90.257629,70.205437 q 0.07324,-1.013184 1.098633,-1.757813 0.524903,-0.378418 1.025391,-0.549316 l -7.165528,0 q 0.500489,0.170898 1.013184,0.549316 1.037598,0.744629 1.11084,1.757813 l 0,20.385742 q -0.07324,1.013183 -1.11084,1.757812 -0.512695,0.378418 -1.013184,0.549317 l 7.165528,0 q -0.500488,-0.170899 -1.025391,-0.549317 -1.02539,-0.744629 -1.098633,-1.757812 l 0,-20.385742 z"
       style="font-style:normal;font-variant:normal;font-weight:normal;font-stretch:normal;font-size:25px;font-family:'Game of Thrones';-inkscape-font-specification:'Game of Thrones'"
       id="path4292" />
    <path
       d="m 110.57013,82.534538 q 0.0854,-0.280761 -0.18311,-0.646972 -0.53711,-0.744629 -2.34375,-1.196289 l 7.99561,0 q -1.80664,0.45166 -2.34375,1.196289 -0.28076,0.366211 -0.18311,0.646972 l 0,8.630371 q -0.53711,0.427246 -1.75781,0.8667 -2.45361,0.866699 -5.87158,0.866699 -6.164551,0 -9.826661,-2.966309 -4.174804,-3.381347 -4.174804,-10.034179 -0.146485,-3.00293 1.428222,-5.993653 3.161621,-6.005859 11.779783,-6.005859 6.9458,0.524902 8.69141,1.049804 l -0.84229,5.529786 q -0.25634,-1.367188 -1.33056,-2.734375 -2.13623,-2.746582 -6.25,-2.746582 -4.96826,0 -7.836917,2.893066 -2.905273,2.929688 -2.905273,8.056641 0,4.907226 3.979492,8.325195 3.674318,3.149414 8.129878,3.149414 2.46582,0.109863 3.84522,-1.159668 l 0,-7.727051 z"
       style="font-style:normal;font-variant:normal;font-weight:normal;font-stretch:normal;font-size:25px;font-family:'Game of Thrones';-inkscape-font-specification:'Game of Thrones'"
       id="path4294" />
    <path
       d="m 120.53107,70.205437 q 0.0732,-1.013184 1.09863,-1.757813 0.5249,-0.378418 1.02539,-0.549316 l -7.16553,0 q 0.50049,0.170898 1.01319,0.549316 1.03759,0.744629 1.11084,1.757813 l 0,20.385742 q -0.0733,1.013183 -1.11084,1.757812 -0.5127,0.378418 -1.01319,0.549317 l 7.16553,0 q -0.50049,-0.170899 -1.02539,-0.549317 -1.02539,-0.744629 -1.09863,-1.757812 l 0,-20.385742 z"
       style="font-style:normal;font-variant:normal;font-weight:normal;font-stretch:normal;font-size:25px;font-family:'Game of Thrones';-inkscape-font-specification:'Game of Thrones'"
       id="path4296" />
    <path
       d="m 130.18683,69.631706 q 0.0244,-0.02441 0.0488,-0.07324 l -0.0855,20.837402 q 0,-1.770019 0.0366,-20.76416 z m 4.5166,22.229004 q -1.78223,0 -3.2959,-1.062012 -0.76904,-0.537109 -1.17187,-1.074218 l 0,-20.166016 q 0.6958,-1.123047 2.53906,-1.660156 l -8.10547,0 q 2.02637,0.585937 2.57568,1.733398 0.0366,18.994141 0.0366,20.76416 0,1.098633 -1.08643,1.916504 -0.53711,0.402832 -1.08643,0.585938 l 13.57422,0 0.5127,-4.382324 q -0.41504,0.830078 -1.18408,1.672363 -1.53809,1.672363 -3.30811,1.672363 z"
       style="font-style:normal;font-variant:normal;font-weight:normal;font-stretch:normal;font-size:25px;font-family:'Game of Thrones';-inkscape-font-specification:'Game of Thrones'"
       id="path4298" />
    <path
       d="m 141.90558,80.59362 0,-2.221679 15.64941,5.676269 0,2.026367 -15.64941,5.67627 0,-2.22168 12.57324,-4.455566 -12.57324,-4.479981 z"
       style="font-style:normal;font-variant:normal;font-weight:normal;font-stretch:normal;font-size:25px;font-family:'Game of Thrones';-inkscape-font-specification:'Game of Thrones'"
       id="path4300" />
  </g>
  <rect
     y="79.000687"
     x="237.92688"
     height="64.775826"
     width="76.688622"
     id="rect4198"
     style="fill:none;fill-rule:evenodd;stroke:#000000;stroke-width:1.51477349;stroke-linecap:butt;stroke-linejoin:miter;stroke-miterlimit:4;stroke-dasharray:none;stroke-opacity:1" />
  <g
     style="font-style:normal;font-weight:normal;font-size:20.19698143px;line-height:125%;font-family:sans-serif;letter-spacing:0px;word-spacing:0px;fill:#000000;fill-opacity:1;stroke:none;stroke-width:1px;stroke-linecap:butt;stroke-linejoin:miter;stroke-opacity:1"
     id="text4200">
    <path
       d="m 249.17023,112.6806 -4.40918,1.568 4.40918,1.55944 0,0.77759 -5.4773,-1.98669 0,-0.70923 5.4773,-1.98669 0,0.77758 z"
       style="font-style:normal;font-variant:normal;font-weight:normal;font-stretch:normal;font-size:8.75px;font-family:'Game of Thrones';-inkscape-font-specification:'Game of Thrones';text-align:center;text-anchor:middle"
       id="path4269" />
    <path
       d="m 253.07098,113.13348 1.08948,-2.94799 1.0553,2.95654 -2.14478,-0.009 z m 5.49439,3.85376 q -0.1709,-0.0384 -0.38025,-0.14953 -0.4187,-0.22217 -0.60669,-0.5896 -0.30334,-0.58533 -3.35388,-8.01087 l -2.99927,7.94678 q -0.0555,0.1709 -0.22217,0.35889 -0.32898,0.3717 -0.8844,0.44433 l 2.56348,0 q -0.16663,-0.0384 -0.33325,-0.1239 -0.33753,-0.17944 -0.33753,-0.43152 l 0.92286,-2.76428 2.41394,0 1.12365,2.901 q -0.46997,0.13245 -0.67077,0.4187 l 2.76428,0 z"
       style="font-style:normal;font-variant:normal;font-weight:normal;font-stretch:normal;font-size:8.75px;font-family:'Game of Thrones';-inkscape-font-specification:'Game of Thrones';text-align:center;text-anchor:middle"
       id="path4271" />
    <path
       d="m 261.00494,112.64215 q 0.0342,-2.74719 0.0342,-3.42651 0,-0.4657 0.19226,-0.54688 0.0769,-0.0342 0.69642,-0.0342 0.6195,0 1.11938,0.52552 0.61096,0.64514 0.61096,1.77734 0,1.03821 -0.59387,1.474 -0.29907,0.21789 -0.59814,0.23071 l -1.46119,0 z m 3.35816,1.53381 q -0.56824,-0.8374 -1.0083,-1.24328 0.90576,-0.8075 1.20483,-1.75171 0.15381,-0.47424 0.1239,-0.78186 0,-1.6919 -1.84143,-2.06787 -0.91858,-0.18799 -1.83716,-0.0384 l -1.75171,0 q 0.17518,0.0598 0.35462,0.19226 0.35889,0.26062 0.38452,0.61096 l 0,7.08801 q -0.0256,0.35462 -0.38452,0.61524 -0.17944,0.12817 -0.35462,0.18798 l 2.49085,0 q -0.17517,-0.0598 -0.35461,-0.18798 -0.35889,-0.26062 -0.38453,-0.61524 l 0,-2.93091 q 1.12366,0 1.90979,0.60669 0.39307,0.29907 0.5597,0.60242 0.37597,0.63232 0.90149,1.26465 1.05102,1.26037 1.78588,1.26037 0.73487,0 1.1023,-0.18798 0.18799,-0.094 0.22644,-0.18372 -0.82886,0.1709 -1.82861,-0.80322 -0.5597,-0.54688 -1.29883,-1.63636 z"
       style="font-style:normal;font-variant:normal;font-weight:normal;font-stretch:normal;font-size:8.75px;font-family:'Game of Thrones';-inkscape-font-specification:'Game of Thrones';text-align:center;text-anchor:middle"
       id="path4273" />
    <path
       d="m 273.26691,116.81207 2.90527,-5.24658 1.00403,4.34082 0,0.28198 q -0.0256,0.35035 -0.38452,0.61097 -0.17945,0.12817 -0.35034,0.18798 l 2.47802,0 q -0.1709,-0.0598 -0.35034,-0.18798 -0.35889,-0.26062 -0.38452,-0.61097 l -1.3031,-7.84851 -3.62732,7.01111 -3.52051,-7.11365 -1.00403,7.84851 q -0.0256,0.35462 -0.38452,0.61097 -0.17517,0.13244 -0.35034,0.19226 l 2.4823,0 q -0.17517,-0.0598 -0.35461,-0.19226 -0.35462,-0.25635 -0.38453,-0.61097 l 0,-0.27771 0.60242,-4.44335 2.88391,5.42175 0.0299,0.0299 0.004,0 0,0.004 0.009,-0.009 z"
       style="font-style:normal;font-variant:normal;font-weight:normal;font-stretch:normal;font-size:8.75px;font-family:'Game of Thrones';-inkscape-font-specification:'Game of Thrones';text-align:center;text-anchor:middle"
       id="path4275" />
    <path
       d="m 281.31195,109.04474 q 0.0256,-0.35462 0.38452,-0.61524 0.18372,-0.13244 0.35889,-0.19226 l -2.50794,0 q 0.17518,0.0598 0.35462,0.19226 0.36316,0.26062 0.38879,0.61524 l 0,7.13501 q -0.0256,0.35461 -0.38879,0.61523 -0.17944,0.13245 -0.35462,0.19226 l 2.50794,0 q -0.17517,-0.0598 -0.35889,-0.19226 -0.35888,-0.26062 -0.38452,-0.61523 l 0,-7.13501 z"
       style="font-style:normal;font-variant:normal;font-weight:normal;font-stretch:normal;font-size:8.75px;font-family:'Game of Thrones';-inkscape-font-specification:'Game of Thrones';text-align:center;text-anchor:middle"
       id="path4277" />
    <path
       d="m 284.69147,108.84393 q 0.009,-0.009 0.0171,-0.0256 l -0.0299,7.29309 q 0,-0.61951 0.0128,-7.26746 z m 1.58081,7.78015 q -0.62378,0 -1.15357,-0.3717 -0.26916,-0.18799 -0.41015,-0.37598 l 0,-7.0581 q 0.24353,-0.39307 0.88867,-0.58106 l -2.83692,0 q 0.70923,0.20508 0.90149,0.60669 0.0128,6.64795 0.0128,7.26746 0,0.38452 -0.38025,0.67078 -0.18799,0.14099 -0.38025,0.20507 l 4.75098,0 0.17944,-1.53381 q -0.14526,0.29053 -0.41443,0.58533 -0.53833,0.58532 -1.15783,0.58532 z"
       style="font-style:normal;font-variant:normal;font-weight:normal;font-stretch:normal;font-size:8.75px;font-family:'Game of Thrones';-inkscape-font-specification:'Game of Thrones';text-align:center;text-anchor:middle"
       id="path4279" />
    <path
       d="m 290.18585,108.84393 q 0.009,-0.009 0.0171,-0.0256 l -0.0299,7.29309 q 0,-0.61951 0.0128,-7.26746 z m 1.58081,7.78015 q -0.62378,0 -1.15356,-0.3717 -0.26917,-0.18799 -0.41016,-0.37598 l 0,-7.0581 q 0.24353,-0.39307 0.88867,-0.58106 l -2.83691,0 q 0.70923,0.20508 0.90149,0.60669 0.0128,6.64795 0.0128,7.26746 0,0.38452 -0.38025,0.67078 -0.18799,0.14099 -0.38025,0.20507 l 4.75097,0 0.17945,-1.53381 q -0.14527,0.29053 -0.41443,0.58533 -0.53833,0.58532 -1.15784,0.58532 z"
       style="font-style:normal;font-variant:normal;font-weight:normal;font-stretch:normal;font-size:8.75px;font-family:'Game of Thrones';-inkscape-font-specification:'Game of Thrones';text-align:center;text-anchor:middle"
       id="path4281" />
    <path
       d="m 296.82953,113.13348 1.08948,-2.94799 1.05529,2.95654 -2.14477,-0.009 z m 5.49438,3.85376 q -0.17089,-0.0384 -0.38025,-0.14953 -0.4187,-0.22217 -0.60668,-0.5896 -0.30335,-0.58533 -3.35389,-8.01087 l -2.99926,7.94678 q -0.0556,0.1709 -0.22217,0.35889 -0.32898,0.3717 -0.8844,0.44433 l 2.56347,0 q -0.16662,-0.0384 -0.33325,-0.1239 -0.33752,-0.17944 -0.33752,-0.43152 l 0.92285,-2.76428 2.41394,0 1.12366,2.901 q -0.46997,0.13245 -0.67078,0.4187 l 2.76428,0 z"
       style="font-style:normal;font-variant:normal;font-weight:normal;font-stretch:normal;font-size:8.75px;font-family:'Game of Thrones';-inkscape-font-specification:'Game of Thrones';text-align:center;text-anchor:middle"
       id="path4283" />
    <path
       d="m 303.28522,112.6806 0,-0.77758 5.47729,1.98669 0,0.70923 -5.47729,1.98669 0,-0.77759 4.40063,-1.55944 -4.40063,-1.568 z"
       style="font-style:normal;font-variant:normal;font-weight:normal;font-stretch:normal;font-size:8.75px;font-family:'Game of Thrones';-inkscape-font-specification:'Game of Thrones';text-align:center;text-anchor:middle"
       id="path4285" />
  </g>
</svg>
